<?xml version="1.0" encoding="UTF-8" standalone="no"?>
<!-- Created with Inkscape (http://www.inkscape.org/) -->

<svg
   width="210mm"
   height="297mm"
   viewBox="0 0 210 297"
   version="1.1"
   id="svg5"
   inkscape:version="1.2.2 (732a01da63, 2022-12-09)"
   sodipodi:docname="therapyai_background2.svg"
   inkscape:export-filename="therapyai_background_dark.png"
   inkscape:export-xdpi="96.194176"
   inkscape:export-ydpi="96.194176"
   xmlns:inkscape="http://www.inkscape.org/namespaces/inkscape"
   xmlns:sodipodi="http://sodipodi.sourceforge.net/DTD/sodipodi-0.dtd"
   xmlns:xlink="http://www.w3.org/1999/xlink"
   xmlns="http://www.w3.org/2000/svg"
   xmlns:svg="http://www.w3.org/2000/svg">
  <sodipodi:namedview
     id="namedview7"
     pagecolor="#ffffff"
     bordercolor="#000000"
     borderopacity="0.25"
     inkscape:showpageshadow="2"
     inkscape:pageopacity="0.0"
     inkscape:pagecheckerboard="0"
     inkscape:deskcolor="#d1d1d1"
     inkscape:document-units="mm"
     showgrid="false"
     inkscape:zoom="0.63159002"
     inkscape:cx="296.07814"
     inkscape:cy="554.15695"
     inkscape:window-width="1920"
     inkscape:window-height="974"
     inkscape:window-x="-11"
     inkscape:window-y="-11"
     inkscape:window-maximized="1"
     inkscape:current-layer="layer1"
     showguides="false" />
  <defs
     id="defs2">
    <linearGradient
       inkscape:collect="always"
       id="linearGradient1138">
      <stop
         style="stop-color:#3daeef;stop-opacity:1;"
         offset="0"
         id="stop1134" />
      <stop
         style="stop-color:#4ec4e9;stop-opacity:0;"
         offset="1"
         id="stop1136" />
    </linearGradient>
    <linearGradient
       inkscape:collect="always"
       id="linearGradient925">
      <stop
         style="stop-color:#4ebce9;stop-opacity:1;"
         offset="0"
         id="stop921" />
      <stop
         style="stop-color:#714ee9;stop-opacity:0;"
         offset="1"
         id="stop923" />
    </linearGradient>
    <linearGradient
       inkscape:collect="always"
       xlink:href="#linearGradient1138"
       id="linearGradient927"
       x1="144.47812"
       y1="162.27835"
       x2="117.02534"
       y2="114.24783"
       gradientUnits="userSpaceOnUse"
       gradientTransform="matrix(3.2812072,0,0,4.7157209,-246.74711,-520.69049)" />
    <linearGradient
       inkscape:collect="always"
       xlink:href="#linearGradient925"
       id="linearGradient1096"
       gradientUnits="userSpaceOnUse"
       x1="128.48915"
       y1="167.7494"
       x2="105.57139"
       y2="112.72266"
       gradientTransform="matrix(-2.6465248,-3.9364329,-5.3675982,1.9408807,1166.6937,323.52773)" />
  </defs>
  <g
     inkscape:label="Layer 1"
     inkscape:groupmode="layer"
     id="layer1">
    <rect
       style="opacity:1;fill:#000000;stroke-width:1.72168;stroke-linecap:round;stroke-linejoin:round;stop-color:#000000;fill-opacity:1"
       id="rect905"
       width="225.37695"
       height="304.13321"
       x="-11.31074"
       y="-4.608079" />
    <path
       id="path234"
       style="opacity:1;fill:url(#linearGradient927);stroke-width:13.5749;stroke-linecap:round;stroke-linejoin:round;stop-color:#000000"
       d="m 275.67523,111.00949 c 0,136.56092 -77.02842,247.26542 -172.04775,247.26542 -73.755704,0 -132.197656,-45.31299 -153.602024,-140.5677 C -65.013134,94.543292 53.750706,138.13027 83.145044,93.549063 112.53938,48.967814 135.95958,-17.135356 187.76761,-18.940205 c 22.76091,-4.382932 86.96112,16.5092667 87.90762,129.949695 z"
       sodipodi:nodetypes="csszcc" />
    <path
       id="path234-7"
       style="opacity:0.25;fill:none;stroke:#f1f1f1;stroke-width:1.94676;stroke-linecap:round;stroke-linejoin:round;stroke-dasharray:none;stroke-opacity:1;stop-color:#000000"
       d="M -61.082735,61.960624 C -0.99685755,-17.882398 110.51803,-33.409354 187.99272,27.280199 248.12999,74.388583 275.84358,138.20905 251.38437,207.57275 209.45492,289.1882 131.79797,187.8488 88.215619,195.13973 44.633329,202.4306 -3.5474677,226.12049 -46.583636,194.08553 -67.070355,182.11056 -110.22402,128.89033 -61.082735,61.960624 Z"
       sodipodi:nodetypes="csszcc" />
    <path
       id="path234-1"
       style="opacity:1;fill:url(#linearGradient1096);stroke-width:17.6865;stroke-linecap:round;stroke-linejoin:round;stop-color:#000000"
       d="M 26.300204,-43.22434 C -129.13819,12.980988 -140.64533,133.89026 -64.005603,247.88412 -4.5163903,336.36809 161.7918,389.6092 224.16423,350.28269 344.49732,274.41133 192.95782,240.17306 219.99308,186.5604 247.02845,132.94773 284.84973,71.649736 245.11718,8.7533266 231.74783,-20.356639 156.18556,-88.778294 26.300204,-43.22434 Z"
       sodipodi:nodetypes="csszcc" />
    <path
       id="path234-7-1"
       style="opacity:0.25;fill:none;stroke:#f1f1f1;stroke-width:1.94676;stroke-linecap:round;stroke-linejoin:round;stroke-dasharray:none;stroke-opacity:1;stop-color:#000000"
       d="M -15.410959,19.255832 C 64.467641,-24.814992 163.71952,0.8490127 206.2743,76.578053 239.30608,135.36031 238.97453,196.56103 192.84315,244.36056 127.53596,296.0934 99.842473,187.37398 60.60119,178.3344 21.359995,169.29472 -27.794637,171.96193 -52.052719,131.25412 -64.810002,114.52853 -81.341797,56.619591 -15.410959,19.255832 Z"
       sodipodi:nodetypes="csszcc" />
  </g>
</svg>
